# xmcd CD database file
#
# Track frame offsets:
#	150
#	16341
#	27386
#	40882
#	52280
#	70787
#	82529
#	100549
#	117646
#	130602
#	146393
#	161927
#	171992
#	186019
#	201596
#	216307
#
# Disc length: 3058 seconds
#
# Revision: 0
# Processed by: cddbd v1.5.2PL0 Copyright (c) Steve Scherf et al.
# Submitted via: CDex 1.51
#
DISCID=e50bf010
DTITLE=Freddy Quinn - Starportrait Freddy Quinn
DYEAR=1900
DGENRE=Country
TTITLE0=Heimweh
TTITLE1=Cu-Cu-Ru-Cu-Cu Paloma
TTITLE2=Hamburger Veermaster
TTITLE3=Die Gitarre und das Meer
TTITLE4=La Paloma
TTITLE5=Love Me Tender
TTITLE6=Der Groschen fällt manchmal zu spät
TTITLE7=Rolling Home
TTITLE8=Spanish Eyes
TTITLE9=Das große Spiel
TTITLE10=Der Junge von St. Pauli
TTITLE11=Hello Dolly
TTITLE12=Ol' Man River
TTITLE13=In einem kühlen Grunde
TTITLE14=Istanbul ist weit
TTITLE15=Heimatlos
EXTD=
EXTT0=
EXTT1=
EXTT2=
EXTT3=
EXTT4=
EXTT5=
EXTT6=
EXTT7=
EXTT8=
EXTT9=
EXTT10=
EXTT11=
EXTT12=
EXTT13=
EXTT14=
EXTT15=
PLAYORDER=
